<svg xmlns="http://www.w3.org/2000/svg" viewBox="0 0 32 32"><defs><style>.cls-1{fill:#df7861;}.cls-2{fill:#fff;}.cls-3{fill:#96b59f;}</style></defs><title>icon-Asset 2do-it</title><g id="Layer_2" data-name="Layer 2"><g id="Layer_1-2" data-name="Layer 1"><rect class="cls-1" width="32" height="32"/><path class="cls-2" d="M6.59,14.33h-4V2.59H6.67a6.08,6.08,0,0,1,3,.7,4.74,4.74,0,0,1,1.93,2,6.78,6.78,0,0,1,.68,3.14,6.8,6.8,0,0,1-.68,3.15,4.74,4.74,0,0,1-2,2A6.24,6.24,0,0,1,6.59,14.33ZM4.74,12.49H6.49a4.21,4.21,0,0,0,2-.45,2.85,2.85,0,0,0,1.23-1.35,5.37,5.37,0,0,0,.41-2.24,5.32,5.32,0,0,0-.41-2.24A2.84,2.84,0,0,0,8.55,4.87a4.1,4.1,0,0,0-2-.44H4.74Z"/><path class="cls-2" d="M18.05,14.5a4.27,4.27,0,0,1-2.24-.57,3.83,3.83,0,0,1-1.46-1.59A5.18,5.18,0,0,1,13.83,10a5.22,5.22,0,0,1,.52-2.39A3.82,3.82,0,0,1,15.82,6a4.27,4.27,0,0,1,2.24-.57A4.26,4.26,0,0,1,20.29,6a3.82,3.82,0,0,1,1.46,1.59A5.23,5.23,0,0,1,22.27,10a5.19,5.19,0,0,1-.52,2.38,3.83,3.83,0,0,1-1.46,1.59A4.26,4.26,0,0,1,18.05,14.5Zm0-1.66a1.78,1.78,0,0,0,1.17-.39,2.31,2.31,0,0,0,.7-1A4.31,4.31,0,0,0,20.17,10a4.36,4.36,0,0,0-.23-1.46,2.33,2.33,0,0,0-.7-1,1.77,1.77,0,0,0-1.17-.39,1.81,1.81,0,0,0-1.19.39,2.33,2.33,0,0,0-.71,1A4.38,4.38,0,0,0,15.94,10a4.34,4.34,0,0,0,.23,1.46,2.31,2.31,0,0,0,.71,1A1.82,1.82,0,0,0,18.06,12.84Z"/><path class="cls-3" d="M29.43,9.32V11H24.14V9.32Z"/><path class="cls-2" d="M23.18,17.5V29.24H21.05V17.5Z"/><path class="cls-2" d="M29.8,20.44V22H24.73V20.44ZM26,18.33h2.08v8.27a1.29,1.29,0,0,0,.13.64.67.67,0,0,0,.34.3,1.31,1.31,0,0,0,.47.08,2.14,2.14,0,0,0,.36,0l.25-.05L30,29.16l-.47.13a4,4,0,0,1-.75.08,3.35,3.35,0,0,1-1.4-.24,2.15,2.15,0,0,1-1-.81A2.41,2.41,0,0,1,26,26.94Z"/></g></g></svg>